<?xml version="1.0" standalone="no"?><!DOCTYPE svg PUBLIC "-//W3C//DTD SVG 1.1//EN" "http://www.w3.org/Graphics/SVG/1.1/DTD/svg11.dtd"><svg t="1554616475696" class="icon" style="" viewBox="0 0 1024 1024" version="1.1" xmlns="http://www.w3.org/2000/svg" p-id="1975" xmlns:xlink="http://www.w3.org/1999/xlink" width="48" height="48"><defs><style type="text/css"></style></defs><path d="M729.6 411.2L446.4 694.4c-43.2 43.2-115.2 43.2-158.4 0s-43.2-115.2 0-158.4l334.4-334.4c72-72 188.8-72 260.8 0s72 188.8 0 260.8L524.8 819.2c-99.2 99.2-262.4 99.2-361.6 0s-99.2-262.4 0-361.6l305.6-307.2c3.2-3.2 6.4-4.8 8-8l3.2-3.2c12.8-12.8 32-12.8 44.8 0 12.8 12.8 12.8 32 0 44.8-4.8 3.2-8 6.4-11.2 11.2L208 502.4c-75.2 75.2-75.2 196.8 0 272s196.8 75.2 272 0l305.6-305.6 11.2-11.2 40-40c46.4-46.4 46.4-123.2 0-169.6s-123.2-46.4-169.6 0L332.8 580.8c-19.2 19.2-19.2 49.6 0 67.2 19.2 19.2 49.6 19.2 67.2 0l283.2-283.2c12.8-12.8 32-12.8 44.8 0 12.8 14.4 12.8 33.6 1.6 46.4z" p-id="1976" fill="#a0917f"></path></svg>