<svg width="488" height="488" xmlns="http://www.w3.org/2000/svg">
 <style type="text/css">.st0{fill:#779AB4;}</style>

 <g>
  <title>background</title>
  <rect fill="none" id="canvas_background" height="490" width="490" y="-1" x="-1"/>
 </g>
 <g>
  <title>Layer 1</title>
  <g stroke="null" id="svg_1">
   <g stroke="null" id="svg_2">
    <path stroke="null" id="svg_3" d="m140.630126,167.506474l88.068018,50.253269l0,-100.992547l-63.566413,-36.256227c-7.281602,-4.179672 -9.741602,-13.511034 -5.510401,-20.703958c4.231201,-7.192924 13.579203,-9.720168 20.959204,-5.637698l48.21601,27.508076l0,-65.513933c0,-8.359345 6.888001,-15.163462 15.350403,-15.163462c8.462402,0 15.350403,6.804118 15.350403,15.163462l0,65.999941l49.20001,-27.994084c4.723201,-2.721647 10.627202,-2.818849 15.448803,-0.097202c4.821601,2.721647 7.773602,7.776134 7.675202,13.219429c0,5.443294 -2.952001,10.497782 -7.773602,13.219429l-64.550414,36.839437l0,100.506538l88.560019,-50.544874l0,-72.609656c0,-8.359345 6.888001,-15.163462 15.350403,-15.163462c8.462402,0 15.350403,6.804118 15.350403,15.163462l0,55.016152l57.367212,-32.756967c7.380002,-4.082471 16.728004,-1.652429 20.959204,5.637698c4.231201,7.192924 1.7712,16.524286 -5.510401,20.703958l-57.859212,33.048572l49.20001,27.994084c7.281602,4.179672 9.741602,13.511034 5.510401,20.703958c-4.231201,7.192924 -13.579203,9.720168 -20.959204,5.637698l-64.550414,-36.839437l-88.068018,50.253269l91.216819,52.002899l64.550414,-36.839437c7.380002,-4.082471 16.728004,-1.652429 20.959204,5.637698c4.231201,7.192924 1.7712,16.524286 -5.510401,20.703958l-49.20001,27.994084l54.808811,31.298941c7.281602,4.179672 9.741602,13.511034 5.510401,20.703958c-4.231201,7.192924 -13.579203,9.720168 -20.959204,5.637698l-54.316811,-31.007336l0,55.016152c0,8.359345 -6.888001,15.163462 -15.350403,15.163462c-8.462402,0 -15.350403,-6.804118 -15.350403,-15.163462l0,-72.512454l-91.708819,-52.294504l0,104.005799l64.550414,36.839437c7.281602,4.179672 9.741602,13.511034 5.510401,20.703958c-4.231201,7.192924 -13.579203,9.720168 -20.959204,5.637698l-49.20001,-27.994084l0,62.500681c0,8.359345 -6.888001,15.163462 -15.350403,15.163462c-8.462402,0 -15.350403,-6.804118 -15.350403,-15.163462l0,-61.917471l-48.21601,27.508076c-7.380002,4.179672 -16.728004,1.74963 -21.057604,-5.540496c-4.231201,-7.290126 -1.6728,-16.524286 5.608801,-20.80116l63.566413,-36.256227l0,-104.686211l-91.216819,52.002899l0,73.581673c0,8.359345 -6.888001,15.163462 -15.350403,15.163462c-8.462402,0 -15.350403,-6.804118 -15.350403,-15.163462l0,-56.08537l-54.808811,31.20174c-4.723201,2.721647 -10.627202,2.818849 -15.448803,0.097202c-4.821601,-2.721647 -7.773602,-7.776134 -7.675202,-13.219429c0,-5.443294 2.952001,-10.497782 7.773602,-13.219429l54.316811,-31.007336l-48.21601,-27.508076c-7.084801,-4.276874 -9.348002,-13.413832 -5.215201,-20.509555c4.132801,-7.095723 13.284003,-9.622966 20.565604,-5.734899l63.566413,36.256227l91.610419,-52.294504l-88.560019,-50.544874l-63.369613,36.353429c-4.723201,2.721647 -10.627202,2.818849 -15.448803,0.097202c-4.821601,-2.721647 -7.773602,-7.776134 -7.675202,-13.219429c0,-5.443294 2.952001,-10.497782 7.773602,-13.219429l48.21601,-27.508076l-57.465612,-32.659765c-7.281602,-4.179672 -9.741602,-13.511034 -5.510401,-20.703958c4.231201,-7.192924 13.579203,-9.720168 20.959204,-5.637698l57.859212,33.048572l0,-56.08537c0,-8.359345 6.888001,-15.163462 15.350403,-15.163462c8.462402,0 15.350403,6.804118 15.350403,15.163462l0,73.581673zm0,0" class="st0"/>
   </g>
  </g>
 </g>
</svg>