<?xml version="1.0" encoding="utf-8"?>
<!-- Generator: Adobe Illustrator 18.1.1, SVG Export Plug-In . SVG Version: 6.00 Build 0)  -->
<svg version="1.1" id="图层_1" xmlns="http://www.w3.org/2000/svg" xmlns:xlink="http://www.w3.org/1999/xlink" x="0px" y="0px"
	 viewBox="0 0 566.9 566.9" enable-background="new 0 0 566.9 566.9" xml:space="preserve">
<g>
	<g>
		<path fill="#7A6C5D" d="M554.5,504.6L445,395.1c81.7-109.3,59.4-264.1-49.9-345.9C285.9-32.5,131-10.1,49.2,99.1
			C17.3,141.9,0,193.7,0,247.1c0,136.5,110.6,247.1,247.1,247.1c53.4,0,105.2-17.3,148-49.2l109.4,109.4c13.7,13.8,36.1,13.8,50,0.1
			C568.2,540.8,568.2,518.4,554.5,504.6L554.5,504.6z M247.1,423.6c-97.5,1.4-177.6-76.5-179-174c-1.4-97.5,76.5-177.6,174-179h5
			c97.5,0,176.5,79,176.5,176.5C423.5,344.6,344.6,423.6,247.1,423.6L247.1,423.6z M247.1,423.6"/>
	</g>
</g>
</svg>
