<?xml version="1.0" encoding="utf-8"?>
<!-- Generator: Adobe Illustrator 18.1.1, SVG Export Plug-In . SVG Version: 6.00 Build 0)  -->
<svg version="1.1" id="图层_1" xmlns="http://www.w3.org/2000/svg" xmlns:xlink="http://www.w3.org/1999/xlink" x="0px" y="0px"
	 viewBox="0 0 326.3 566.9" enable-background="new 0 0 326.3 566.9" xml:space="preserve">
<g>
	<g>
		<defs>
			<rect id="SVGID_1_" x="0" y="1" width="326.3" height="566.9"/>
		</defs>
		<clipPath id="SVGID_2_">
			<use xlink:href="#SVGID_1_"  overflow="visible"/>
		</clipPath>
		<path clip-path="url(#SVGID_2_)" fill="#A69886" d="M313.4,557.2c7.6-7.5,11.9-17.8,11.9-28.5c0-10.7-4.3-21-11.9-28.5l-217-217
			l217-217c14.1-15.4,14.1-38.9,0-54.3c-15.2-14.3-39-14.3-54.3,0L14.5,256.6c-7.8,6.2-12.8,15.1-14.1,25
			c-0.1,10.8,4.3,21.2,11.9,28.8L257,555c7.1,7.8,17.2,12.5,27.8,12.9C295.4,568.3,305.7,564.4,313.4,557.2L313.4,557.2z
			 M313.4,557.2"/>
	</g>
</g>
</svg>
