<svg width="488" height="488" xmlns="http://www.w3.org/2000/svg">
 <style type="text/css">.st0{fill:#779AB4;}</style>

 <g>
  <title>background</title>
  <rect fill="none" id="canvas_background" height="490" width="490" y="-1" x="-1"/>
 </g>
 <g>
  <title>Layer 1</title>
  <g stroke="null" id="svg_1">
   <path stroke="null" id="svg_2" d="m69.405586,259.247312c4.179888,0 8.165363,-1.652495 11.081564,-4.568663c2.916201,-2.916168 4.568715,-6.998803 4.568715,-11.178643c0,0 0,0 0,0c0,-4.17984 -1.652514,-8.16527 -4.568715,-11.178643c-3.013408,-3.013373 -6.901676,-4.568663 -11.178771,-4.568663c0,0 0,0 0,0l-53.560895,0c-8.651397,0 -15.747486,7.096008 -15.747486,15.747306c0,8.651298 7.09609,15.747306 15.747486,15.747306l53.658102,0c-0.097207,0 0,0 0,0z" class="st0"/>
   <path stroke="null" id="svg_3" d="m243.600003,85.054892c0,0 0,0 0,0c4.179888,0 8.26257,-1.652495 11.178771,-4.568663c3.013408,-3.013373 4.665922,-6.901597 4.568715,-11.178643l0,-53.560281c0,-8.651298 -7.09609,-15.747306 -15.747486,-15.747306c-8.651397,0 -15.747486,7.096008 -15.747486,15.747306l0,53.560281c0,4.17984 1.652514,8.16527 4.568715,11.178643c3.013408,2.916168 6.901676,4.568663 11.178771,4.568663z" class="st0"/>
   <path stroke="null" id="svg_4" d="m366.760899,136.087828c0,0 0,0 0,0c4.179888,0 8.26257,-1.652495 11.178771,-4.568663l37.910615,-37.910181c6.124022,-6.123952 6.124022,-16.136128 0,-22.26008c-3.013408,-3.013373 -6.901676,-4.568663 -11.178771,-4.568663c-4.179888,0 -8.165363,1.652495 -11.178771,4.568663l-37.910615,37.910181c-4.568715,4.568663 -5.832402,11.275849 -3.402235,17.20539c2.430168,5.832335 8.165363,9.623354 14.581006,9.623354z" class="st0"/>
   <path stroke="null" id="svg_5" d="m120.439107,350.912184c-4.179888,0 -8.165363,1.652495 -11.178771,4.568663l-37.910615,37.910181c-3.013408,3.013373 -4.568715,6.901597 -4.568715,11.178643s1.652514,8.16527 4.568715,11.178643c3.110615,3.110579 7.09609,4.568663 11.178771,4.568663c4.082682,0 8.068157,-1.555289 11.178771,-4.568663l37.910615,-37.910181c6.124022,-6.123952 6.124022,-16.136128 0,-22.26008c-3.013408,-3.013373 -6.998883,-4.665868 -11.178771,-4.665868z" class="st0"/>
   <path stroke="null" id="svg_6" d="m377.939671,355.578053c-3.013408,-3.013373 -6.901676,-4.568663 -11.178771,-4.568663c-4.179888,0 -8.165363,1.652495 -11.178771,4.568663c-3.013408,3.013373 -4.568715,6.901597 -4.568715,11.178643c0,4.17984 1.652514,8.16527 4.568715,11.178643l37.910615,37.910181c3.013408,3.013373 6.998883,4.568663 11.178771,4.568663c1.360894,0 2.721788,-0.194411 4.082682,-0.583234c5.443576,-1.458084 9.720671,-5.73513 11.178771,-11.178643c1.458101,-5.443513 -0.097207,-11.275849 -4.082682,-15.261278l-37.910615,-37.812975z" class="st0"/>
   <path stroke="null" id="svg_7" d="m243.600003,401.94512c0,0 0,0 0,0c-4.179888,0 -8.165363,1.652495 -11.178771,4.568663c-3.013408,3.013373 -4.568715,6.901597 -4.568715,11.178643l0,53.560281c0,5.637924 3.013408,10.887026 7.873743,13.608783c2.430168,1.360878 5.151955,2.138523 7.873743,2.138523c2.721788,0 5.443576,-0.680439 7.873743,-2.138523c4.860335,-2.818962 7.873743,-8.068064 7.873743,-13.608783l0,-53.560281c0,-4.17984 -1.652514,-8.16527 -4.568715,-11.178643c-3.013408,-2.818962 -6.998883,-4.568663 -11.178771,-4.568663z" class="st0"/>
   <path stroke="null" id="svg_8" d="m471.452522,227.7527l-53.560895,0c-5.637989,0 -10.887151,3.013373 -13.608939,7.873653c-2.818994,4.86028 -2.818994,10.887026 0,15.747306c2.818994,4.86028 8.068157,7.873653 13.608939,7.873653l53.560895,0c8.651397,0 15.747486,-7.096008 15.747486,-15.747306c0,-8.651298 -7.09609,-15.747306 -15.747486,-15.747306z" class="st0"/>
   <path stroke="null" id="svg_9" d="m243.600003,93.70619c-82.6257,0 -149.795534,67.169064 -149.795534,149.793816c0,82.624753 67.169834,149.793816 149.795534,149.793816c82.6257,0 149.795534,-67.169064 149.795534,-149.793816c0,-82.624753 -67.26704,-149.793816 -149.795534,-149.793816zm0,268.093021c-65.2257,0 -118.300561,-53.074253 -118.300561,-118.299204c0,-65.224952 53.074861,-118.299204 118.300561,-118.299204c65.2257,0 118.300561,53.074253 118.300561,118.299204c-0.097207,65.224952 -53.074861,118.299204 -118.300561,118.299204z" class="st0"/>
   <path stroke="null" id="svg_10" d="m109.260336,131.519165c3.013408,3.013373 6.901676,4.568663 11.178771,4.568663c4.179888,0 8.165363,-1.652495 11.178771,-4.568663c3.013408,-3.013373 4.568715,-6.901597 4.568715,-11.178643c0,-4.17984 -1.652514,-8.16527 -4.568715,-11.178643l-37.910615,-37.910181c-6.124022,-6.123952 -16.136313,-6.123952 -22.260336,0c-6.124022,6.123952 -6.124022,16.136128 0,22.26008l37.813409,38.007386z" class="st0"/>
  </g>
 </g>
</svg>