<svg width="488" height="488" xmlns="http://www.w3.org/2000/svg" xmlns:xlink="http://www.w3.org/1999/xlink">
 <style type="text/css">.st0{clip-path:url(#SVGID_2_);fill:#779AB4;}</style>
 <g>
  <title>background</title>
  <rect fill="none" id="canvas_background" height="490" width="490" y="-1" x="-1"/>
 </g>
 <g>
  <title>Layer 1</title>
  <g id="svg_1">
   <g id="svg_2">
    <defs transform="translate(0,-28.618499755859375) translate(0,57.23699951171875) translate(0,-4.800000190734863) translate(-4.599999904632568,0) translate(-47,-82) translate(-14,-120) translate(1,1) ">
     <rect height="431.8" width="488.2" y="205.3" x="64.8" id="SVGID_1_"/>
    </defs>
    <clipPath transform="translate(0,-28.618499755859375) translate(0,57.23699951171875) translate(0,-4.800000190734863) translate(-4.599999904632568,0) translate(-47,-82) translate(-14,-120) translate(1,1) " id="SVGID_2_">
     <use id="svg_3" xlink:href="#SVGID_1_"/>
    </clipPath>
    <path id="svg_4" d="m139.7,292.6185c5.1,-9 16.4,-12.1 25.6,-6.7c9,5.4 11.8,16.7 6.9,25.6l-79.8,138.5c-5.4,9 -16.7,12.1 -25.9,6.7c-8.7,-5.1 -12.1,-16.4 -6.7,-25.6l79.9,-138.5zm-59.3,24.4c-13.6,-13.9 -24.4,-30 -32.1,-47.7c-7.2,-17.4 -11,-36.4 -11,-56.4c0,-20 3.6,-39 11,-56.4l0.5,-1c7.4,-17.4 18.2,-33.3 31.5,-46.7c13.6,-13.1 30,-24.1 48,-31.5l1,-0.5c16.9,-6.7 35.7,-10.8 55.4,-10.8c14.6,0 28.7,2.3 42.3,6.2c13.6,4.1 26.7,10.3 38.2,18c11.8,7.7 22.3,16.9 31,27.4l0.3,0l-0.1,0c9,10.5 16.4,22.3 22.1,35.1c3.8,7.7 11.5,11.8 19.5,10.8l3.8,-0.3l3.6,-0.5l3.6,0l2.8,-0.3l0,0.3c13.3,0 26.2,2.6 37.7,7.4c12.1,4.9 22.8,12.3 32.1,21.3c9.2,9.2 16.4,20.3 21.5,32.1c4.6,11.5 7.4,24.4 7.4,37.7c0,13.3 -2.8,26.2 -7.4,37.7c-5.1,12.1 -12.3,22.8 -21.5,32.1c-7.7,7.7 -16.4,14.1 -26.2,19l-0.3,0c-9.2,4.6 -19.8,7.7 -30.5,9.2c-10.5,1.3 -17.7,10.5 -16.2,20.8c1.3,10.3 10.8,17.4 20.8,16.2c15.1,-2.1 29.5,-6.4 42.8,-12.8l0,-0.3c13.3,-6.7 25.9,-15.1 36.2,-25.9c12.6,-12.6 22.6,-27.2 29.5,-43.9c6.7,-16.2 10.5,-33.9 10.5,-52.1c0,-18.2 -3.8,-35.9 -10.5,-51.8c-6.9,-16.7 -16.9,-31.8 -29.5,-44.4c-12.3,-12.3 -27.4,-22.6 -44.1,-29.5c-16.2,-6.7 -33.6,-10.3 -51.8,-10.3l-0.5,0l-3.3,0.3l-1,0c-6.2,-11.5 -13.6,-22.3 -22.1,-32.3l0,0.3c-11.5,-13.6 -24.4,-25.1 -39,-34.6c-14.9,-9.7 -31,-17.7 -48.5,-22.6c-17.2,-4.9 -35.1,-7.7 -53.4,-7.7c-24.6,0 -48.2,4.9 -69.8,13.9l-0.8,0.3c-22.6,9.2 -43.1,23.1 -60,40c-16.7,16.4 -30,36.7 -39.8,59l-0.5,0.8c-8.5,21.8 -13.6,45.9 -13.6,70.8s5.1,48.5 13.9,70.5l0,-0.3c9.2,22.8 23.1,43.1 40,60c7.2,7.4 19.2,7.4 26.4,0c7.8,-7.4 7.8,-19.4 0.1,-26.6l0,0zm143.4,-24.4l-80.3,138.5c-5.1,9 -2.1,20.5 6.9,25.6c9,5.4 20.5,2.3 25.6,-6.7l79.8,-138.5c5.4,-9 2.1,-20.3 -6.7,-25.6c-8.9,-5.1 -20.1,-2.3 -25.3,6.7l0,0zm83.9,0c5.4,-9 16.7,-12.1 25.6,-6.7c9,5.4 12.1,16.7 6.9,25.6l-80,138.5c-5.1,9 -16.7,12.1 -25.6,6.7c-9,-5.1 -11.8,-16.4 -6.7,-25.6l79.8,-138.5zm0,0" class="st0"/>
   </g>
  </g>
 </g>
</svg>